<svg height="512pt" viewBox="0 -11 512 512" width="512pt" xmlns="http://www.w3.org/2000/svg" role="img" aria-labeled-by="icon-xylophone">
  <title id="icon-xylophone">Xylophone</title>
  <path d="m490.664062 128.167969c11.785157 0 21.335938-9.550781 21.335938-21.335938v-85.332031c0-11.78125-9.550781-21.332031-21.335938-21.332031h-298.664062c-11.785156 0-21.335938 9.550781-21.335938 21.332031v85.332031c0 11.785157 9.550782 21.335938 21.335938 21.335938h64v42.664062h-149.335938c-11.78125 0-21.332031 9.550781-21.332031 21.335938v85.332031c0 11.78125 9.550781 21.332031 21.332031 21.332031h64v42.667969h-149.332031c-11.78125 0-21.332031 9.550781-21.332031 21.332031v85.335938c0 11.78125 9.550781 21.332031 21.332031 21.332031h64v21.332031h42.667969v-21.332031h256v21.332031h42.664062v-21.332031h64c11.785157 0 21.335938-9.550781 21.335938-21.332031v-85.335938c0-11.78125-9.550781-21.332031-21.335938-21.332031h-64v-42.667969h64c11.785157 0 21.335938-9.550781 21.335938-21.332031v-85.332031c0-11.785157-9.550781-21.335938-21.335938-21.335938h-64v-42.664062zm-85.332031-85.335938c11.78125 0 21.332031 9.550781 21.332031 21.335938 0 11.78125-9.550781 21.332031-21.332031 21.332031s-21.332031-9.550781-21.332031-21.332031c0-11.785157 9.550781-21.335938 21.332031-21.335938zm-128 0c11.78125 0 21.332031 9.550781 21.332031 21.335938 0 11.78125-9.550781 21.332031-21.332031 21.332031s-21.332031-9.550781-21.332031-21.332031c0-11.785157 9.550781-21.335938 21.332031-21.335938zm-85.332031 170.667969c11.78125 0 21.332031 9.550781 21.332031 21.332031 0 11.785157-9.550781 21.335938-21.332031 21.335938-11.785156 0-21.335938-9.550781-21.335938-21.335938 0-11.78125 9.550782-21.332031 21.335938-21.332031zm-85.335938 213.332031c-11.78125 0-21.332031-9.550781-21.332031-21.332031s9.550781-21.332031 21.332031-21.332031c11.785157 0 21.335938 9.550781 21.335938 21.332031s-9.550781 21.332031-21.335938 21.332031zm298.667969 0c-11.78125 0-21.332031-9.550781-21.332031-21.332031s9.550781-21.332031 21.332031-21.332031 21.332031 9.550781 21.332031 21.332031-9.550781 21.332031-21.332031 21.332031zm-21.332031-85.332031h-170.667969v-42.667969h170.667969zm21.332031-85.332031c-11.78125 0-21.332031-9.550781-21.332031-21.335938 0-11.78125 9.550781-21.332031 21.332031-21.332031s21.332031 9.550781 21.332031 21.332031c0 11.785157-9.550781 21.335938-21.332031 21.335938zm-21.332031-85.335938h-85.335938v-42.664062h85.335938zm0 0"/>
</svg>